<?xml version="1.0" encoding="utf-8"?>

<!DOCTYPE svg PUBLIC "-//W3C//DTD SVG 1.1//EN" "http://www.w3.org/Graphics/SVG/1.1/DTD/svg11.dtd">
<!-- Uploaded to: SVG Repo, www.svgrepo.com, Generator: SVG Repo Mixer Tools -->
<svg height="800px" width="800px" version="1.1" id="_x32_" xmlns="http://www.w3.org/2000/svg" xmlns:xlink="http://www.w3.org/1999/xlink" 
	 viewBox="0 0 512 512"  xml:space="preserve">
<style type="text/css">
	.st0{fill:#F5F5F5;}
</style>
<g>
	<path class="st0" d="M423.887,113.03V30.522C423.887,13.669,410.218,0,393.366,0H66.284C49.431,0,35.766,13.669,35.766,30.522
		v82.508c0,16.853,13.666,30.522,30.518,30.522h327.082C410.218,143.552,423.887,129.884,423.887,113.03z"/>
	<path class="st0" d="M191.879,472.286c0,21.937,17.784,39.714,39.714,39.714h2.651c21.93,0,39.711-17.777,39.711-39.714V329.267
		h-82.076V472.286z"/>
	<path class="st0" d="M445.472,58.738v47.992v31.933c0,9.02-5.498,17.161-13.887,20.533l-0.473,0.188l-180.311,86.67l0.018,0.038
		c-19.5,8.284-32.26,27.374-32.26,48.636v16.59h30.762v-16.59c0-9.042,5.493-17.169,13.879-20.54l0.48-0.196l180.304-86.662
		l-0.022-0.038c19.52-8.284,32.272-27.375,32.272-48.629V106.73C476.226,85.422,463.616,67.12,445.472,58.738z"/>
</g>
</svg>