<svg width="62" height="51" viewBox="0 0 62 51" fill="#DFDFDF" xmlns="http://www.w3.org/2000/svg">
<path d="M61.0929 6.30628C58.8479 7.30105 56.4363 7.97319 53.901 8.277C56.4874 6.72839 58.4715 4.27104 59.4072 1.34588C56.9874 2.78157 54.307 3.82474 51.4544 4.38396C49.1691 1.9535 45.9159 0.43177 42.3133 0.43177C35.3983 0.43177 29.7899 6.04011 29.7899 12.9605C29.7899 13.9391 29.9029 14.8909 30.1126 15.8104C19.6998 15.2861 10.4753 10.2988 4.297 2.72243C3.22158 4.57754 2.60321 6.72839 2.60321 9.01904C2.60321 13.3638 4.81589 17.2003 8.17391 19.4453C6.11985 19.3781 4.18946 18.8162 2.50104 17.8779V18.0392C2.50104 24.1072 6.81618 29.1698 12.5482 30.3205C11.4943 30.6055 10.3893 30.7561 9.24934 30.7561C8.44277 30.7561 7.65502 30.6808 6.89147 30.5356C8.48578 35.5094 13.1101 39.1336 18.5921 39.2304C14.3038 42.5911 8.90251 44.5941 3.03606 44.5941C2.02516 44.5941 1.02771 44.5349 0.0463867 44.4193C5.5902 47.9763 12.1718 50.0465 19.2427 50.0465C42.2837 50.0465 54.8796 30.9631 54.8796 14.4123C54.8796 13.8746 54.8662 13.3315 54.842 12.7938C57.2886 11.0247 59.4125 8.82278 61.0875 6.31435L61.0929 6.30628Z" fill="#DFDFDF"/>
</svg>
