<?xml version="1.0" encoding="utf-8"?>

<!-- Uploaded to: SVG Repo, www.svgrepo.com, Generator: SVG Repo Mixer Tools -->
<svg width="800px" height="800px" viewBox="-23.09 0 182.929 182.929" xmlns="http://www.w3.org/2000/svg">
  <g id="Group_727" data-name="Group 727" transform="translate(-269.062 -377.308)">
    <path style="fill: #B0B2B6" id="Path_556" data-name="Path 556" d="M405.62,400.538c-.687-2.524-2.143-4.193-4.869-5.583-.382-.195-.794-.389-1.224-.576-2.624-1.145-9.727-4.833-11.071-5.532-.558-1.121-3.081-5.743-7.408-7.245-1.471-.511-2.87-1.143-4.223-1.754-2.892-1.306-5.624-2.54-8.779-2.54a16.253,16.253,0,0,0-7.839,2.282,12.052,12.052,0,0,0-5.507,6.4c-7.681,2.776-9.963,11.355-10.058,11.726a.751.751,0,0,0,.727.935h.929a14.95,14.95,0,0,0-4.513,9.145.75.75,0,0,0,.749.776h1.617a10.176,10.176,0,0,0-.985,4.482c-3.046,1.573-21.66,11.026-28.978,11.026-3.964,0-8.866,1.807-13.449,4.958-4.4,3.028-7.592,6.671-8.528,9.747a.75.75,0,0,0,.046.554l1.115,2.229c-2.145,1.419-9.394,6.7-11.1,14.279a.749.749,0,0,0,.061.5l1.248,2.5a44.139,44.139,0,0,0-4.158,22.76.752.752,0,0,0,.216.451l2.521,2.521-12.632,43.511a.75.75,0,0,0,.025.489c-.715,3.552.362,4.981,1.653,5.982l.019.013.006.006.019.01a3.783,3.783,0,0,0,2.324.731,7.66,7.66,0,0,0,2.778-.615l-6.772,14.512a3.737,3.737,0,0,0-.149,3.435c.73,1.266,2.436,1.908,5.069,1.908a24.459,24.459,0,0,0,11.519-2.822c1.605.08,10.357.128,13.277-7.583,2.368-6.255,3.635-9.669,4.073-10.855H318.44c.676,0,1.371-.034,2.085-.086v16.344c0,2.032-3.277,4.92-6.336,4.92a3.294,3.294,0,0,0-2.6,1.086,5.686,5.686,0,0,0-.979,4.013.75.75,0,0,0,1.39.283,2.219,2.219,0,0,1,1.74-1.042,3.519,3.519,0,0,0,3.009,1.423c.142,0,.249-.007.308-.011a5.035,5.035,0,0,0,4.293-1.952,5.133,5.133,0,0,0,4.2,1.952h12.73c.011,0,.021-.007.031-.007a.738.738,0,0,0,.276-.06l.011-.007a.749.749,0,0,0,.216-.16c.008-.009.021-.012.029-.022a.44.44,0,0,0,.024-.043.671.671,0,0,0,.059-.071,2.217,2.217,0,0,1,1.741-1.042,3.306,3.306,0,0,0,2.661,1.41h.018c.123.009.236.012.331.012.2,0,.328-.012.349-.014a5.028,5.028,0,0,0,4.25-1.948c.091.118.188.232.288.341a5.208,5.208,0,0,0,3.754,1.614c.07,0,.123,0,.156,0H372.3c2.082,0,2.958-.8,3.323-1.405a4.521,4.521,0,0,1,3.177,1.122.75.75,0,0,0,1.337-.467,4.32,4.32,0,0,0-1.274-3.189c-1.823-1.806-4.956-1.822-5.148-1.813H359.542c-3.6,0-4.8-4.515-4.924-5.028l-1.406-22.484,6.9-23.461c8.994-.336,12.619-8.332,12.867-8.909.328-.668,8.677-17.732,13.015-31.419,1.754-5.532,2.644-9.849,2.644-12.831,0-10.113-4.6-15.223-6.556-16.945a8.652,8.652,0,0,0,3.7-6.4h2.1a.75.75,0,0,0,.75-.75,18.7,18.7,0,0,0-2.205-9.171h1.455a.75.75,0,0,0,.662-1.1,13.932,13.932,0,0,0-5.118-5.534,6.959,6.959,0,0,0,2.371-5.452,5.128,5.128,0,0,0-1.062-3.482c-.253-.348-.355-.5-.355-.77a.6.6,0,0,1,.233-.519c.766-.619,3.1-.47,4.535-.163h.007a42.209,42.209,0,0,1,7.073,2.275l.765.3a23.2,23.2,0,0,0,5.729,1.656v.7a.75.75,0,0,0,1.128.648A4.442,4.442,0,0,0,405.62,400.538Zm-7.853-5.208-.242.052c-.145.031-.284.062-.416.094l-.212.05c-.137.033-.266.067-.391.1l-.154.041c-.168.047-.326.093-.471.139l-.032.011c-.132.043-.254.085-.368.127-.041.015-.077.03-.115.045-.08.031-.157.061-.228.092l-.111.05c-.064.03-.123.059-.179.088-.032.016-.063.032-.093.049-.056.031-.107.062-.156.093l-.064.04c-.064.044-.124.088-.175.131l-.01.009c-.034.03-.065.059-.093.088a92.5,92.5,0,0,0-9.671-2.863,6.479,6.479,0,0,0,3.711-3.311c1.886.98,6.809,3.522,9.626,4.842Zm.123,6.03c-.061-.206-.135-.382-.2-.575s-.123-.376-.191-.548c-.1-.246-.206-.465-.314-.686-.042-.085-.078-.182-.121-.263l.289.112c.523.2,1.056.408,1.608.619,2.669,1.019,3.475,2.1,3.711,2.743A21.74,21.74,0,0,1,397.89,401.36ZM283.727,484.566a.747.747,0,0,0-.19-.739l-2.646-2.646c-1.149-11.761,4.141-21.881,4.2-21.983a.752.752,0,0,0,.009-.688l-1.3-2.592c1.951-7.959,10.842-13.383,10.933-13.437a.751.751,0,0,0,.284-.979l-1.28-2.56c2.246-6.5,13.778-13.362,20.452-13.362,7.93,0,27.337-9.978,29.868-11.3l1.683.374c.807.179,1.6.4,2.393.638.261.08.516.178.774.265.523.175,1.044.354,1.557.556.3.119.6.253.895.382.46.2.918.4,1.368.619.306.15.607.309.909.469.429.226.855.46,1.273.706q.447.264.886.541c.41.259.812.529,1.209.806.281.2.561.392.836.6.4.3.788.612,1.173.929.251.207.507.409.752.624.409.358.8.734,1.192,1.113.2.2.411.383.607.584.035.036.067.076.1.112l-.037-.007c-.161-.032-.33-.061-.493-.093-.4-.078-.806-.155-1.221-.227-.221-.038-.449-.072-.674-.109-.367-.059-.734-.119-1.11-.173-.252-.037-.51-.068-.765-.1-.36-.047-.718-.1-1.084-.136-.271-.03-.546-.055-.82-.082-.361-.035-.721-.07-1.087-.1-.283-.022-.569-.039-.854-.057-.365-.023-.73-.044-1.1-.06-.295-.012-.591-.02-.888-.027-.366-.009-.732-.016-1.1-.017-.3,0-.608,0-.914.007-.369.006-.74.015-1.112.03-.309.012-.617.027-.926.045q-.561.035-1.124.082-.467.039-.934.088c-.377.04-.755.088-1.133.139-.312.041-.623.084-.934.133-.382.06-.763.13-1.144.2-.309.058-.618.115-.927.181-.386.082-.771.177-1.156.272-.3.075-.606.147-.909.23-.393.108-.785.232-1.177.355-.291.091-.584.176-.874.275-.409.14-.815.3-1.222.456-.269.1-.54.2-.808.311-.449.187-.892.4-1.336.605-.222.1-.446.2-.667.308q-.992.494-1.965,1.066-.6.352-1.153.715c-.123.08-.235.162-.355.242-.24.162-.483.323-.711.485-.141.1-.27.2-.406.3-.193.143-.391.286-.575.429-.149.116-.286.231-.429.346s-.319.254-.467.379-.293.256-.439.383c-.126.111-.258.223-.378.332-.148.134-.283.265-.422.4-.105.1-.216.2-.316.3-.145.142-.277.279-.412.417-.082.083-.169.169-.247.25-.141.149-.271.292-.4.435l-.183.2c-.138.154-.263.3-.386.447-.041.048-.086.1-.125.145-.132.159-.252.308-.369.455l-.07.087c-.124.157-.235.3-.34.445l-.033.043q-.165.225-.3.418l-.005.007c-.358.514-.548.841-.59.917l-.016.028-.038.065-.031.052-1.3,2.213c-.2.345-.43.731-.674,1.145q-.506.861-1.122,1.906c-1.716,2.913-4.028,6.838-6.712,11.388l-.037.063c-.124.211-.253.428-.378.641l-1.592,2.7-3.032,5.137-.167.283q-.893,1.514-1.812,3.068-.744,1.26-1.5,2.537c-2.253,3.813-4.575,7.739-6.881,11.634-6.619,11.181-11.941,20.132-15.818,26.6-.6,1-1.171,1.97-1.724,2.916l-.32.546q-.789,1.356-1.512,2.633l-.263.467c-.476.846-.936,1.671-1.367,2.463l-.055.1c-.438.806-.846,1.576-1.238,2.327-.045.086-.1.18-.141.265ZM271.151,528.3h0a40.672,40.672,0,0,1,2.872-7.4q.313-.656.658-1.349c1.839-3.7,4.347-8.2,7.552-13.548,2.182-3.643,4.82-8.069,7.89-13.235q3.582-6.029,7.932-13.377c6.139-10.369,12.392-20.964,17.145-29.026,4.8-8.148,8.074-13.707,8.138-13.816l.007-.011,0-.006a16.18,16.18,0,0,1,1.562-2.154q.227-.271.489-.566c.35-.393.748-.813,1.2-1.25a27.993,27.993,0,0,1,5.418-4.124c.661-.387,1.332-.738,2.008-1.068.212-.1.425-.2.638-.295.478-.22.958-.429,1.441-.623.236-.094.472-.187.708-.276.5-.187,1.006-.359,1.512-.52.2-.062.391-.131.588-.189.695-.208,1.394-.4,2.094-.558.113-.026.226-.045.339-.07q.891-.2,1.785-.35c.232-.039.464-.073.7-.108q.735-.111,1.47-.2c.236-.026.471-.053.707-.076.537-.052,1.073-.091,1.607-.123.167-.009.334-.024.5-.032q1.042-.048,2.073-.05c.152,0,.3.005.455.006.555,0,1.108.016,1.655.039.223.009.444.02.665.032q.752.041,1.49.1l.362.029-.061.011q-.543.087-1.042.185l-.079.015c-1.091.218-2,.46-2.7.675l-.116.036c-.178.055-.341.108-.488.157l-.144.049c-.123.043-.232.081-.329.117l-.114.042-.212.081-.074.029-.072.03-.047.019a.633.633,0,0,0-.059.029l-18.426,9.921a.759.759,0,0,0-.3.3l-.118.22c-.07.129-.164.306-.3.55-.143.268-.32.6-.531.989-3.37,6.268-14.867,27.663-19.079,35.589l-.218.412c-.052.1-.109.2-.158.3s-.085.16-.127.24l-.071.134-.333.63-.068.13-.265.5a9.323,9.323,0,0,0-.581,1.336,3.153,3.153,0,0,0,.186,2.988,2.208,2.208,0,0,0,.187.209l-37.512,52.795C270.9,532.1,270.512,530.926,271.151,528.3Zm1.624,5.4,37.6-52.923.016,0,.12.033a5.018,5.018,0,0,0,.517.091l.112.01c.146.014.288.023.426.026.036,0,.072,0,.108,0h.043c.142,0,.275-.005.4-.013l.116-.008c.1-.008.191-.016.273-.026l.1-.011c.093-.012.174-.024.229-.034h16.548L278.27,531.971l-.008.006-.007.005-.125.085-.048.031c-.047.031-.1.068-.162.106l-.074.047c-.087.055-.182.115-.289.178C276.576,533.017,274.338,534.185,272.775,533.7Zm69.366-52.847L291.2,531.8H280.565l50.941-50.941Zm7.48,0c.761,0,1.557-.016,2.367-.042.243-.008.485-.015.727-.025q.9-.039,1.824-.1c.184-.012.375-.017.558-.03l-44.469,44.469-6.672,6.671H293.321l50.941-50.941Zm9.409-.637q1.668-.231,3.261-.55c.057-.012.115-.022.173-.033q.918-.187,1.807-.4c.108-.026.215-.055.323-.081,1.414-.354,2.791-.745,4.094-1.207-.012.659-.029,1.316-.074,1.952l-24.548,24.549L316.712,531.8H306.077L350.9,486.969l6.531-6.531c.3-.033.583-.084.878-.121C358.552,480.287,358.791,480.252,359.03,480.218Zm-61.134,63.4c-2.794,7.38-11.609,6.64-11.984,6.606a.757.757,0,0,0-.462.107,23,23,0,0,1-10.947,2.724c-1.995,0-3.333-.409-3.766-1.152a2.3,2.3,0,0,1,.163-1.974c.011-.019.021-.039.031-.059l7.6-16.275.1-.064.1-.065.186-.122.052-.034.022-.015h22.783C301.209,534.819,299.976,538.126,297.9,543.619Zm70.465-61.35c-.015.109-.022.225-.038.333-.035.244-.08.479-.12.72-.1.594-.2,1.181-.327,1.75-.05.232-.105.457-.158.684-.133.563-.274,1.117-.428,1.654-.058.2-.118.409-.179.61q-.25.822-.526,1.6c-.06.169-.118.339-.18.505-.2.55-.416,1.081-.634,1.6-.049.115-.1.235-.145.348-.26.6-.527,1.175-.8,1.724-.009.019-.018.04-.028.06-.591,1.187-1.2,2.257-1.792,3.2l0,0c-.283.454-.562.876-.834,1.274-.053.077-.1.147-.156.222-.217.312-.429.609-.632.883-.066.089-.13.173-.194.258-.182.24-.358.467-.523.674l-.187.232c-.155.19-.3.365-.436.523l-.154.179q-.2.223-.35.393l-.1.113c-.1.112-.19.2-.255.269l-.041.043c-.066.067-.11.111-.116.116h0l-14.958,14.17v0L332.119,527.73a17.14,17.14,0,0,1-5.412,2.787,25.063,25.063,0,0,1-5.2,1.1c-.1.011-.2.027-.3.037h0c-.829.08-1.606.126-2.366.137Zm-27.244,72.2h-8.5c-3.554,0-4.769-4.4-4.919-5.007V531.752a18.043,18.043,0,0,0,5.435-2.913l11.008-10.428,1.9,8.574c.083,1.174,1.412,20.125,1.412,22.569C347.454,551.586,344.177,554.474,341.117,554.474Zm-15.591,4.252a.568.568,0,0,0-.058,0,3.637,3.637,0,0,1-3.5-2.367.747.747,0,0,0-.77-.463.756.756,0,0,0-.664.612c-.043.226-.505,2.216-3.513,2.216a.7.7,0,0,0-.079,0c-.065.005-1.6.146-2.064-.961a.751.751,0,0,0-.621-.457c-.017,0-.1-.009-.24-.009a4.256,4.256,0,0,0-1.84.418,2.6,2.6,0,0,1,.538-1.172,1.838,1.838,0,0,1,1.471-.575c3.735,0,7.836-3.36,7.836-6.42V533.075c.1-.011.187-.032.283-.045q.808-.105,1.593-.253c.111-.021.225-.038.335-.06.614-.124,1.214-.271,1.8-.435.051-.014.106-.023.157-.037v17.309a.745.745,0,0,0,.016.156c.054.256,1.386,6.264,6.4,6.264h5.6c-.019.029-.028.063-.046.093a3.759,3.759,0,0,0-.212.426c-.036.083-.079.163-.11.247a4.766,4.766,0,0,0-.151.511c-.015.06-.037.12-.049.18a6.246,6.246,0,0,0-.105.665c-.006.055-.006.1-.01.156-.012.155-.023.3-.025.44l0,.034Zm26.21-32.06a.748.748,0,0,0-.029.258l1.418,22.677a.792.792,0,0,0,.014.109c.055.256,1.386,6.264,6.4,6.264h14.179c.018,0,2.7,0,4.088,1.382a2.813,2.813,0,0,1,.393.487,8.243,8.243,0,0,0-3.069-.535.751.751,0,0,0-.745.661c0,.007-.24.757-2.09.757H352.456a.539.539,0,0,0-.057,0,3.682,3.682,0,0,1-2.731-1.133,3.95,3.95,0,0,1-.769-1.235.746.746,0,0,0-.694-.465l-.076,0a.756.756,0,0,0-.664.612c-.043.226-.505,2.216-3.513,2.216h-.538a1.773,1.773,0,0,1-1.605-.957.75.75,0,0,0-.621-.457,4.212,4.212,0,0,0-2.072.406c0-.017.008-.034.012-.05a3.325,3.325,0,0,1,.156-.493c.017-.041.032-.083.051-.124a2,2,0,0,1,.313-.5,1.6,1.6,0,0,1,.137-.124,1.745,1.745,0,0,1,.144-.129,1.709,1.709,0,0,1,.189-.1c.05-.025.1-.057.148-.078a1.913,1.913,0,0,1,.261-.071c.046-.01.086-.028.134-.036a2.742,2.742,0,0,1,.456-.035c3.735,0,7.837-3.36,7.837-6.42,0-2.562-1.361-21.907-1.42-22.73a.662.662,0,0,0-.015-.109l-2.113-9.507,12.631-11.967Zm19.89-32.719c-.009.017-.016.034-.023.051-.03.075-2.877,6.915-10.237,7.914.057-.067.124-.151.184-.222l.144-.175q.262-.318.552-.692l.118-.151a36.721,36.721,0,0,0,2.429-3.6l.028-.049c.27-.455.539-.936.809-1.439.031-.058.061-.116.092-.175q.386-.726.76-1.516c.026-.056.053-.111.079-.167a38.516,38.516,0,0,0,2.227-6c.006-.024.012-.049.019-.073.188-.679.359-1.381.515-2.1.032-.149.061-.3.092-.452q.188-.912.333-1.865c.032-.206.063-.412.092-.621.083-.607.15-1.227.206-1.858.014-.164.041-.319.053-.484.008-.1.011-.2.018-.308.013-.194.023-.39.034-.587.033-.622.055-1.245.059-1.866,0-.051,0-.1,0-.149.537-.215,1.034-.444,1.537-.672.117-.053.237-.1.355-.155.466-.217.9-.441,1.339-.667.2-.1.393-.2.587-.3.46-.25.894-.5,1.32-.761.15-.091.3-.177.452-.271.542-.338,1.054-.681,1.541-1.028.032-.023.066-.044.1-.067a27.1,27.1,0,0,0,5.011-4.6C377.922,481.131,371.7,493.8,371.626,493.947ZM383.763,437.7a22.938,22.938,0,0,1,3.376,12.641c0,2.784-.839,6.863-2.494,12.127l-.007.005a.736.736,0,0,0-.258.318.809.809,0,0,0-.04.077l0,0-.024.068c-.007.021-.019.051-.03.081s-.035.089-.054.138-.044.109-.073.176c-.038.088-.083.19-.134.3-.028.062-.062.132-.1.2-.048.1-.1.209-.16.323-.035.07-.069.137-.109.212-.1.187-.21.389-.335.6-.03.052-.065.108-.1.161-.118.2-.246.406-.386.622-.033.05-.064.1-.1.15a21.588,21.588,0,0,1-1.36,1.838l-.021.025a25.568,25.568,0,0,1-4.218,4c-.158.12-.313.246-.474.363-.341.248-.71.492-1.079.737-.189.124-.375.254-.566.374-.353.222-.732.439-1.11.655-.232.132-.461.271-.695.4-.341.183-.708.36-1.068.538a36.643,36.643,0,0,1-3.8,1.6c-.39.14-.784.277-1.185.407-.442.143-.884.285-1.328.413-.4.118-.822.223-1.237.33-.724.187-1.448.359-2.172.511q-.519.108-1.046.207-1.071.2-2.131.358c-.49.072-.982.141-1.482.2-.4.049-.809.1-1.209.139q-1.363.137-2.783.219c-.206.012-.413.026-.616.036-1.163.056-2.344.089-3.545.089h-36.85a.816.816,0,0,0-.14.013c-.639.12-2.1.17-2.551-.433a.87.87,0,0,1-.113-.312.84.84,0,0,1-.046-.128,2.015,2.015,0,0,1,.026-.447c.007-.059,0-.1.01-.166a4.534,4.534,0,0,1,.191-.645c.015-.045.019-.08.036-.125a8.681,8.681,0,0,1,.417-.911c2.638-5.048,19.633-36.659,21.149-39.479l18.194-9.8.034-.013.1-.039.027-.011.221-.082.035-.013c.093-.033.2-.071.322-.112l.036-.012c.127-.043.268-.089.422-.137l.042-.014q.24-.075.521-.155l.036-.011q.3-.084.638-.173h0a29.17,29.17,0,0,1,3.436-.664l.132-.016c.276-.036.561-.068.852-.1.1-.01.2-.018.3-.026.244-.022.491-.041.744-.058q.2-.012.4-.021c.229-.012.461-.02.7-.027.157,0,.314-.007.474-.009q.327,0,.662,0c.179,0,.358,0,.54.01.079,0,.16.008.238.011l2.853.317h0l1.542.192c.359.07.711.167,1.065.252.328.078.66.143.984.233.347.1.687.218,1.03.328.325.1.655.195.976.311s.64.258.961.387.67.256,1,.4c.31.139.613.3.919.453.33.162.664.312.99.487s.619.363.928.545.625.352.931.546.613.421.919.631.6.394.887.609c.375.276.739.58,1.106.876.215.173.434.332.646.511q.863.73,1.7,1.535a.778.778,0,0,0,.1.084A13.791,13.791,0,0,1,383.763,437.7Zm2.813-22.125h-1.522a.751.751,0,0,0-.582,1.223,15.634,15.634,0,0,1,2.653,8.7h-2.071a.752.752,0,0,0-.748.806,7.159,7.159,0,0,1-3.4,6.092c-.243-.228-.495-.433-.741-.651-.276-.245-.55-.495-.83-.729-.318-.265-.642-.511-.965-.762-.283-.219-.563-.445-.849-.653-.331-.241-.67-.462-1.006-.688-.288-.193-.573-.395-.865-.578-.346-.217-.7-.412-1.052-.614-.29-.167-.578-.343-.872-.5-.366-.194-.74-.366-1.111-.545-.289-.139-.574-.288-.865-.417-.394-.174-.8-.324-1.2-.481-.278-.108-.551-.229-.832-.329-.448-.16-.9-.293-1.359-.431-.24-.073-.476-.159-.718-.225q-1.023-.282-2.069-.489c-.018,0-.036-.01-.054-.013h-.006l-.047-.008h-.01c-.427-.083-.877-.14-1.319-.2-.268-.314-.559-.6-.837-.907s-.562-.633-.86-.933c-.341-.343-.7-.661-1.059-.989-.309-.285-.608-.581-.928-.853-.369-.316-.759-.605-1.142-.9-.328-.257-.647-.525-.985-.769-.4-.291-.822-.552-1.236-.824-.339-.223-.669-.46-1.016-.671-.44-.267-.9-.5-1.35-.749-.339-.185-.67-.386-1.016-.559-.483-.242-.981-.45-1.475-.668-.332-.147-.656-.311-.992-.446-.56-.226-1.134-.415-1.706-.61-.283-.1-.56-.212-.845-.3q-1.3-.4-2.625-.7l-1.4-.312a9.584,9.584,0,0,1,1.363-4.691.75.75,0,0,0-.654-1.117h-1.981a15.015,15.015,0,0,1,5.3-8.6.75.75,0,0,0-.483-1.323H346.4c.761-2.129,3.077-7.319,8.149-9.5v.024q.008.282.024.626l0,.05c.011.227.026.473.044.734l.01.141c.019.266.042.545.071.841,0,.038.008.078.012.116.029.289.062.589.1.9l.012.1c.041.324.089.662.142,1.008.01.069.021.137.032.207q.082.521.186,1.069c.011.06.023.12.035.181q.1.535.229,1.091c.008.037.015.074.024.111.089.387.189.781.3,1.179.021.08.043.16.065.241q.163.592.353,1.2l.069.21c.13.4.268.8.417,1.2.011.029.021.058.032.088.156.415.326.83.5,1.246.036.082.07.163.107.245q.27.611.575,1.216c.037.074.077.147.115.221.211.408.433.815.671,1.216l.025.044c.243.407.5.808.776,1.2.052.075.1.15.154.224.27.382.553.759.852,1.127.056.07.115.138.172.206.318.382.646.757,1,1.12,3.726,3.841,8.739,5.789,14.9,5.789h.089l.086,0,.065,0c.035,0,.068,0,.11,0l.1-.006.13-.008.12-.01.157-.014.144-.015.175-.02.166-.021.192-.027c.059-.008.12-.018.182-.028l.209-.035.2-.037c.073-.014.146-.028.221-.044s.139-.03.21-.046.156-.035.236-.055.144-.036.217-.055l.245-.067.224-.066.254-.081c.075-.024.151-.05.227-.077s.173-.062.26-.1.151-.059.227-.09.176-.073.264-.112.151-.066.226-.1.177-.086.266-.131c.074-.037.147-.075.221-.114l.094-.049A11.45,11.45,0,0,1,386.576,415.576Zm-3.048-13.19a3.686,3.686,0,0,1,.776,2.6,5.451,5.451,0,0,1-2.7,4.955,11.129,11.129,0,0,1-5.053,1.382c-5.737,0-10.386-1.792-13.818-5.328q-.319-.328-.619-.672c-.068-.078-.131-.158-.2-.237-.129-.152-.258-.3-.382-.46-.074-.1-.145-.192-.218-.287-.109-.144-.219-.286-.323-.432-.075-.1-.145-.21-.218-.315-.1-.14-.194-.28-.287-.423-.072-.109-.14-.22-.209-.331-.088-.141-.177-.281-.261-.424-.067-.112-.131-.226-.2-.34-.081-.142-.162-.284-.24-.427-.063-.116-.123-.233-.183-.349-.075-.143-.149-.285-.219-.428-.059-.119-.115-.238-.172-.357-.068-.142-.135-.284-.2-.427q-.081-.18-.159-.36c-.062-.144-.124-.288-.183-.433q-.074-.179-.144-.357c-.057-.144-.113-.288-.167-.432-.045-.12-.09-.241-.133-.361-.052-.143-.1-.286-.151-.429q-.062-.18-.12-.357c-.048-.144-.093-.287-.138-.43-.037-.118-.073-.235-.108-.353-.044-.143-.085-.286-.125-.429-.033-.114-.065-.227-.1-.34-.039-.146-.077-.29-.114-.435-.028-.109-.057-.219-.084-.327-.035-.144-.069-.286-.1-.429-.025-.107-.05-.214-.074-.32-.032-.144-.062-.286-.092-.429-.021-.1-.043-.2-.062-.3-.03-.149-.058-.3-.085-.442-.017-.089-.035-.179-.051-.266-.027-.154-.053-.3-.078-.455-.013-.077-.027-.156-.04-.233-.026-.162-.049-.321-.073-.479-.009-.06-.019-.121-.027-.18-.029-.206-.056-.408-.081-.6l0-.025c-.053-.418-.1-.814-.13-1.185l-.007-.08c-.014-.154-.028-.306-.039-.451,0-.039-.006-.075-.009-.113-.01-.13-.019-.258-.027-.379l-.007-.112c-.007-.115-.014-.228-.02-.334l-.005-.11c-.005-.1-.009-.2-.013-.289l0-.1c0-.086-.006-.171-.008-.248l0-.082c0-.077,0-.152-.005-.219v-.055c0-.072,0-.14,0-.2v-.012c0-.108,0-.184,0-.24,1.527-5.133,7.935-7.866,12.007-7.866,2.832,0,5.421,1.17,8.162,2.407,1.383.625,2.813,1.271,4.348,1.8,3.707,1.287,6.014,5.433,6.536,6.457-.253.79-1.458,3.423-6.29,3.423-.023,0-.043.011-.066.013a.725.725,0,0,0-.147.03.742.742,0,0,0-.131.051.667.667,0,0,0-.117.079.741.741,0,0,0-.1.1.807.807,0,0,0-.139.253c-.007.022-.023.039-.028.062a.761.761,0,0,0,0,.083.556.556,0,0,0-.017.081c0,.023.012.043.014.066a.661.661,0,0,0,.03.147.614.614,0,0,0,.051.131.667.667,0,0,0,.079.117.732.732,0,0,0,.1.1.784.784,0,0,0,.116.078.743.743,0,0,0,.138.061c.022.007.039.023.061.028A101.739,101.739,0,0,1,394.2,398.2a1.822,1.822,0,0,0,.352.316,2.662,2.662,0,0,1,.374.319c.035.035.069.072.1.109a4.164,4.164,0,0,1,.276.336c.027.037.054.07.081.108a5.818,5.818,0,0,1,.32.524c.023.042.045.089.067.133q.121.237.236.5l.042.1a40.151,40.151,0,0,0-6.584-2.063c-.061-.013-.2-.041-.382-.074a85.425,85.425,0,0,0-15.373-1.36h-.19c-7.493,0-8.963-3.609-9.02-3.756a.75.75,0,1,0-1.412.506c.071.2,1.852,4.824,10.634,4.749a81.391,81.391,0,0,1,9.8.557,2.091,2.091,0,0,0-.632,1.527A2.619,2.619,0,0,0,383.528,402.386Zm20.687.363c-.2-1.071-1.124-2.759-4.72-4.132-.55-.21-1.081-.415-1.6-.616-.6-.233-1.191-.46-1.784-.686l.1-.034c.054-.018.122-.038.182-.057s.137-.044.218-.067.157-.043.236-.064.17-.047.268-.072.2-.048.3-.071.2-.05.32-.076.244-.051.368-.077.242-.052.377-.078.284-.053.429-.08.3-.056.463-.085l.483-.08.437-.071a6.866,6.866,0,0,1,3.888,4.529A3.431,3.431,0,0,1,404.215,402.749Z" fill="#1a1a1a"/>
    <circle id="Ellipse_114" data-name="Ellipse 114" cx="2.126" cy="2.126" r="2.126" transform="translate(372.298 385.145)" fill="#B0B2B6"/>
  </g>
</svg>