<svg width="62" height="62" viewBox="0 0 62 62" fill="#DFDFDF" xmlns="http://www.w3.org/2000/svg">
<path fill-rule="evenodd" clip-rule="evenodd" d="M18.0322 0.183139C21.288 0.0339085 22.3258 0 30.6163 0C38.9083 0 39.9445 0.0356012 43.1985 0.183139C46.4492 0.330678 48.6691 0.84788 50.6107 1.60247C52.6471 2.36919 54.4918 3.5705 56.0166 5.12283C57.5691 6.64741 58.7706 8.49229 59.537 10.5288C60.2915 12.4704 60.8071 14.6902 60.9564 17.9392C61.1057 21.195 61.1395 22.2328 61.1395 30.5232C61.1395 38.8136 61.104 39.8514 60.9564 43.1074C60.8088 46.3562 60.2915 48.5761 59.537 50.5176C58.757 52.5239 57.7123 54.2279 56.0166 55.9236C54.4921 57.4761 52.6471 58.6776 50.6107 59.444C48.6691 60.1985 46.4492 60.7141 43.2005 60.8634C39.9445 61.0126 38.9067 61.0465 30.6163 61.0465C22.3258 61.0465 21.288 61.011 18.0322 60.8634C14.7832 60.7157 12.5635 60.1985 10.6218 59.444C8.61578 58.664 6.91158 57.6193 5.21585 55.9236C3.66324 54.3991 2.46184 52.5541 1.69549 50.5176C0.940898 48.5761 0.425388 46.3562 0.276157 43.1074C0.126926 39.8514 0.0930176 38.8153 0.0930176 30.5232C0.0930176 22.2311 0.128619 21.195 0.276157 17.9409C0.423695 14.6902 0.940898 12.4704 1.69549 10.5288C2.4622 8.49243 3.66352 6.64763 5.21585 5.12283C6.7404 3.57022 8.58528 2.36883 10.6218 1.60247C12.5635 0.84788 14.7832 0.33237 18.0322 0.183139ZM42.951 5.67732C39.7325 5.53148 38.766 5.49926 30.6163 5.49926C22.4666 5.49926 21.5 5.53148 18.2815 5.67732C15.3055 5.81299 13.6894 6.30982 12.6143 6.72868C11.1899 7.28149 10.1725 7.94281 9.10415 9.01113C8.03755 10.0794 7.37451 11.0969 6.8217 12.5213C6.40284 13.5964 5.906 15.2125 5.77034 18.1885C5.6245 21.407 5.59228 22.3735 5.59228 30.5232C5.59228 38.673 5.6245 39.6394 5.77034 42.858C5.906 45.834 6.40284 47.4501 6.8217 48.5253C7.31068 49.8511 8.09064 51.0504 9.10415 52.0355C10.0889 53.0489 11.2884 53.8289 12.6143 54.3178C13.6894 54.7368 15.3055 55.2335 18.2815 55.3692C21.5 55.5151 22.4649 55.5473 30.6163 55.5473C38.7676 55.5473 39.7325 55.5151 42.951 55.3692C45.927 55.2335 47.5431 54.7368 48.6183 54.3178C50.0427 53.765 51.0602 53.1038 52.1285 52.0355C53.1419 51.0507 53.9219 49.8511 54.4108 48.5253C54.8298 47.4501 55.3265 45.834 55.4622 42.858C55.6082 39.6394 55.6403 38.673 55.6403 30.5232C55.6403 22.3735 55.6082 21.407 55.4622 18.1885C55.3265 15.2125 54.8298 13.5964 54.4108 12.5213C53.8581 11.0969 53.1968 10.0794 52.1285 9.01113C51.0602 7.94454 50.0427 7.28149 48.6183 6.72868C47.5431 6.30982 45.927 5.81299 42.951 5.67732ZM26.719 39.9325C27.9546 40.4444 29.2788 40.7077 30.6163 40.7077C33.3176 40.7077 35.9079 39.6347 37.8178 37.7248C39.728 35.8149 40.801 33.2243 40.801 30.5232C40.801 27.8222 39.728 25.2316 37.8178 23.3216C35.9079 21.4117 33.3176 20.3386 30.6163 20.3386C29.2788 20.3386 27.9546 20.6021 26.719 21.1139C25.4831 21.6257 24.3605 22.3759 23.4147 23.3216C22.469 24.2674 21.7188 25.3901 21.207 26.6257C20.6952 27.8613 20.4318 29.1858 20.4318 30.5232C20.4318 31.8607 20.6952 33.1852 21.207 34.4208C21.7188 35.6564 22.469 36.7791 23.4147 37.7248C24.3605 38.6705 25.4831 39.4208 26.719 39.9325ZM19.5226 19.4295C22.4648 16.4872 26.4554 14.8343 30.6163 14.8343C34.7774 14.8343 38.7679 16.4872 41.7101 19.4295C44.6522 22.3717 46.3052 26.3624 46.3052 30.5232C46.3052 34.6841 44.6522 38.6746 41.7101 41.6171C38.7679 44.5592 34.7774 46.2122 30.6163 46.2122C26.4554 46.2122 22.4648 44.5592 19.5226 41.6171C16.5803 38.6746 14.9274 34.6841 14.9274 30.5232C14.9274 26.3624 16.5803 22.3717 19.5226 19.4295ZM49.784 17.1718C50.4794 16.4763 50.8701 15.533 50.8701 14.5494C50.8701 13.5658 50.4794 12.6225 49.784 11.927C49.0884 11.2316 48.1452 10.8408 47.1615 10.8408C46.1781 10.8408 45.2347 11.2316 44.5393 11.927C43.8437 12.6225 43.453 13.5658 43.453 14.5494C43.453 15.533 43.8437 16.4763 44.5393 17.1718C45.2347 17.8673 46.1781 18.258 47.1615 18.258C48.1452 18.258 49.0884 17.8673 49.784 17.1718Z" fill="#DFDFDF"/>
</svg>
