<svg width="62" height="41" viewBox="0 0 62 41" fill="#DFDFDF" xmlns="http://www.w3.org/2000/svg">
<path d="M59.9126 6.55026C59.5763 5.33149 58.9051 4.21719 57.9662 3.31907C57.0271 2.42094 55.8535 1.77057 54.5626 1.43314C49.786 0.176291 30.6472 0.176291 30.6472 0.176291C22.6668 0.0861709 14.6886 0.486 6.76361 1.37329C5.47235 1.73537 4.30058 2.40072 3.35894 3.30655C2.41731 4.21235 1.73686 5.32872 1.38184 6.55026C0.525649 11.1645 0.110014 15.8415 0.139892 20.525C0.107965 25.2088 0.523617 29.886 1.38184 34.5001C1.72956 35.7182 2.40854 36.8305 3.3521 37.7279C4.29565 38.6251 5.4713 39.276 6.76361 39.6171C11.604 40.8739 30.6472 40.8739 30.6472 40.8739C38.6381 40.9642 46.6271 40.5643 54.5626 39.6768C55.8535 39.3396 57.0271 38.6892 57.9662 37.791C58.9051 36.8929 59.5763 35.7785 59.9126 34.5599C60.7906 29.9478 61.217 25.2701 61.1864 20.5851C61.2523 15.8789 60.8255 11.178 59.9126 6.55026ZM24.5649 29.2333V11.817L40.4873 20.525L24.5649 29.2333Z" fill="#DFDFDF"/>
</svg>
